<?xml version="1.0" standalone="no"?>
<!DOCTYPE svg PUBLIC "-//W3C//DTD SVG 20010904//EN"
 "http://www.w3.org/TR/2001/REC-SVG-20010904/DTD/svg10.dtd">
<svg version="1.0" xmlns="http://www.w3.org/2000/svg"
 width="1200.000000pt" height="1200.000000pt" viewBox="0 0 1200.000000 1200.000000"
 preserveAspectRatio="xMidYMid meet">
<metadata>
Created by potrace 1.11, written by Peter Selinger 2001-2013
</metadata>
<g transform="translate(0.000000,1200.000000) scale(0.100000,-0.100000)"
fill="#000000" stroke="none">
<path d="M0 6000 l0 -6000 6000 0 6000 0 0 6000 0 6000 -6000 0 -6000 0 0
-6000z m5172 3773 c27 -33 28 -51 3 -82 -29 -34 -30 -46 -10 -94 18 -45 19
-81 2 -95 -7 -6 -58 -13 -113 -16 -167 -7 -308 -68 -438 -190 -54 -50 -55 -60
-4 -134 81 -118 110 -246 85 -379 -45 -239 -233 -459 -480 -561 -40 -17 -128
-45 -197 -62 -209 -52 -290 -80 -403 -137 -92 -47 -117 -56 -165 -57 -52 -1
-57 1 -60 22 -2 13 8 71 22 130 14 59 35 174 46 256 26 194 61 350 117 516 53
160 104 262 174 348 178 216 508 307 666 182 46 -36 67 -27 155 66 126 131
264 215 463 280 85 28 117 30 137 7z m1910 -277 c122 -50 286 -199 349 -317
l30 -56 85 43 c73 38 93 44 147 44 82 0 157 -20 208 -56 23 -16 87 -87 143
-159 221 -285 276 -342 386 -403 93 -51 179 -72 299 -73 105 0 143 5 273 35
36 9 73 13 82 10 18 -7 22 -54 5 -54 -6 0 -77 -67 -158 -148 -123 -125 -162
-158 -244 -206 -177 -104 -245 -130 -543 -210 -135 -36 -187 -46 -250 -46
-200 0 -542 71 -669 138 -78 42 -186 155 -229 241 -89 175 -97 318 -29 496 48
126 136 191 287 211 26 4 50 13 53 21 10 26 -29 103 -79 159 -61 66 -110 93
-192 105 -73 10 -90 27 -106 105 -12 55 -6 108 12 132 16 19 77 14 140 -12z
m-1206 -2013 c35 -39 173 -309 190 -372 10 -36 18 -67 18 -67 1 -1 30 4 66 12
129 27 256 11 370 -46 113 -57 182 -141 241 -293 48 -126 54 -181 30 -306 -11
-58 -29 -158 -41 -223 l-21 -116 21 -59 c30 -81 37 -110 45 -173 4 -30 18 -83
32 -117 43 -109 19 -127 -111 -83 -48 16 -150 46 -225 66 -180 49 -288 94
-388 160 -203 135 -333 359 -350 604 -6 99 9 171 60 283 26 58 32 84 32 137
-1 76 -21 125 -91 231 -30 44 -47 80 -46 98 0 16 23 68 51 116 27 48 53 101
57 119 10 47 33 58 60 29z m-1253 -2086 c61 -28 51 -47 -75 -141 -103 -77
-184 -164 -213 -229 -14 -31 -31 -97 -39 -153 -23 -158 -49 -218 -125 -294
-119 -119 -382 -178 -599 -134 -53 11 -154 50 -327 128 l-250 112 -3 36 c-4
52 26 78 92 78 28 0 82 7 120 15 188 40 319 120 526 320 145 141 174 158 286
171 85 10 122 -2 175 -56 38 -39 52 -47 71 -43 40 10 160 141 201 220 52 100
65 105 97 40 19 -39 34 -56 63 -70z m2129 -813 c4 -18 19 -39 33 -48 38 -25
33 -58 -12 -83 -55 -32 -98 -80 -128 -146 -15 -32 -25 -59 -24 -61 59 -37 120
-92 132 -119 34 -71 14 -179 -60 -319 -47 -90 -92 -140 -185 -205 -75 -52
-125 -106 -173 -185 -20 -32 -100 -87 -154 -106 l-28 -10 26 67 c22 58 25 81
25 191 1 104 -3 139 -23 205 -32 104 -32 216 -2 339 36 150 65 179 178 181 42
1 79 7 88 15 8 7 38 56 67 109 66 122 91 156 142 186 55 34 87 30 98 -11z
m-1841 -1564 c12 -7 19 -21 19 -39 0 -38 -85 -116 -142 -132 -85 -22 -104 -54
-94 -151 13 -119 -27 -240 -94 -284 -20 -13 -62 -29 -92 -33 -78 -13 -141 -46
-208 -108 -59 -54 -77 -62 -98 -41 -18 18 -15 45 13 139 14 46 41 160 60 252
19 92 42 181 50 197 24 47 56 61 168 74 91 10 111 16 163 47 84 51 96 57 156
73 66 18 75 19 99 6z"/>
<path d="M4985 9640 c-4 -7 -28 -26 -54 -42 l-46 -30 53 5 c68 8 107 27 107
52 0 23 -48 34 -60 15z"/>
<path d="M4175 9311 c-117 -19 -235 -68 -303 -127 -24 -21 -56 -63 -74 -98
-17 -33 -55 -103 -86 -155 -88 -151 -108 -217 -142 -470 -11 -83 -25 -162 -30
-177 -11 -28 -16 -121 -7 -130 3 -3 61 13 129 34 69 22 194 54 279 72 184 38
273 79 381 179 87 80 143 159 219 305 66 129 73 170 40 242 -24 52 -138 175
-156 168 -29 -12 -67 -87 -96 -190 -17 -60 -34 -113 -39 -118 -13 -14 -23 80
-16 155 3 40 2 69 -3 69 -10 0 -83 -84 -99 -116 -6 -12 -16 -66 -21 -121 -9
-100 -44 -213 -68 -220 -17 -6 -25 48 -14 98 6 24 11 62 11 83 l0 39 -21 -19
c-54 -49 -89 -164 -89 -295 0 -62 -3 -81 -15 -85 -21 -9 -45 14 -45 43 0 30
-25 40 -49 19 -14 -13 -20 -35 -23 -86 -4 -77 -11 -90 -36 -72 -31 22 -45 25
-63 14 -52 -33 -109 20 -63 58 8 8 20 22 25 32 9 16 4 21 -27 34 -43 18 -39
24 43 57 106 43 153 91 153 157 0 17 -6 20 -49 20 -58 0 -86 22 -51 40 11 6
57 15 103 20 73 8 85 13 110 40 15 17 27 41 27 55 0 24 -3 25 -57 25 -32 0
-65 5 -73 10 -13 9 -11 14 12 34 19 17 49 28 100 36 101 17 124 27 139 61 13
34 6 46 -31 51 -14 1 -25 10 -25 18 0 25 61 56 165 85 136 37 175 69 132 108
-21 19 -127 29 -197 18z"/>
<path d="M7667 9100 c-47 -14 -127 -71 -142 -101 -8 -15 -15 -46 -15 -69 0
-39 2 -42 43 -60 23 -10 74 -24 112 -30 72 -11 145 -37 145 -51 0 -21 -80 -32
-147 -21 -60 10 -123 7 -123 -5 0 -18 45 -86 74 -111 54 -47 119 -62 269 -62
152 0 157 -11 26 -57 -43 -15 -79 -30 -78 -33 1 -14 103 -70 126 -70 16 0 46
12 68 25 30 19 54 25 95 25 58 0 146 -32 135 -49 -3 -6 -37 -13 -76 -17 -91
-9 -76 -23 32 -30 104 -7 139 -18 169 -49 l23 -25 -176 0 c-107 0 -178 -4
-182 -10 -3 -6 3 -30 15 -54 29 -56 24 -82 -14 -79 -37 3 -68 33 -107 101 -44
78 -102 137 -160 161 -28 12 -55 21 -60 19 -6 -2 4 -29 21 -60 49 -93 34 -124
-36 -76 -39 27 -69 78 -77 130 -8 56 -35 105 -92 167 -28 31 -62 70 -77 88
-26 32 -26 32 -32 9 -3 -14 3 -54 15 -91 28 -90 23 -103 -22 -66 -57 48 -69
83 -69 208 0 71 -4 113 -12 121 -18 18 -97 14 -143 -7 -107 -49 -156 -129
-163 -267 -5 -105 8 -175 44 -248 84 -168 239 -273 502 -338 73 -19 116 -22
272 -23 163 0 195 3 270 23 108 29 341 121 444 175 81 43 205 152 190 167 -5
4 -40 13 -79 20 -146 24 -288 86 -406 176 -86 65 -177 169 -280 319 -148 216
-209 259 -322 225z"/>
<path d="M6160 6944 c-22 -20 -40 -40 -40 -44 0 -4 33 -10 73 -13 81 -6 148
-26 155 -45 7 -21 -55 -40 -101 -31 -23 5 -54 8 -70 9 -27 0 -27 0 -12 -29 22
-44 70 -76 164 -112 95 -36 156 -82 131 -99 -9 -6 -41 -7 -78 -3 l-63 6 11
-27 c15 -41 32 -70 44 -78 6 -4 37 -8 69 -8 69 0 91 -10 112 -51 25 -48 4 -61
-61 -37 -17 6 -38 8 -47 5 -14 -5 -14 -11 3 -54 18 -49 46 -73 86 -73 24 0 74
-49 74 -73 0 -10 -11 -19 -27 -23 -16 -3 -35 -8 -44 -10 -10 -3 -21 -24 -28
-52 -37 -146 -44 -160 -67 -141 -9 7 -14 33 -14 74 0 82 -9 125 -28 133 -8 3
-35 -5 -59 -18 -24 -13 -45 -21 -48 -19 -2 3 5 40 16 83 26 101 23 110 -41
104 -30 -3 -53 -1 -59 6 -5 6 -11 61 -13 121 -5 110 -18 156 -51 183 -18 15
-30 2 -47 -53 -13 -40 -36 -75 -51 -75 -5 0 -13 10 -20 21 -8 16 -8 41 1 100
11 71 11 81 -6 110 -11 18 -23 31 -29 29 -5 -1 -21 -28 -34 -59 -32 -74 -31
-136 7 -283 52 -199 140 -359 258 -467 79 -72 108 -85 174 -81 30 2 94 3 142
3 l86 -1 6 91 c9 128 26 261 41 332 44 201 20 330 -95 504 -55 84 -70 95 -155
106 -27 4 -82 22 -122 41 -40 19 -79 34 -88 34 -8 0 -33 -16 -55 -36z"/>
<path d="M3961 5198 c-35 -10 -204 -167 -303 -280 l-50 -58 35 0 c24 0 55 14
103 46 49 32 77 44 96 41 25 -3 26 -2 12 17 -30 43 -14 67 54 79 43 9 112 57
151 106 l31 39 -31 11 c-37 13 -52 13 -98 -1z"/>
<path d="M4164 5015 c-35 -14 -59 -44 -98 -122 -28 -56 -35 -60 -66 -41 -27
17 -46 4 -87 -58 -64 -97 -53 -91 -104 -61 -25 15 -56 27 -68 27 -15 0 -48
-24 -90 -65 -37 -36 -71 -65 -74 -65 -4 0 -7 14 -7 31 0 38 -37 126 -56 133
-36 14 -264 -83 -264 -113 0 -11 217 -100 320 -132 115 -35 236 -32 361 10
132 45 183 85 234 184 36 71 39 86 43 173 3 53 1 99 -4 104 -5 5 -23 3 -40 -5z"/>
<path d="M6291 4124 c-31 -39 -26 -129 5 -103 8 6 14 17 14 24 0 6 9 20 20 30
27 24 27 75 1 75 -11 0 -29 -12 -40 -26z"/>
<path d="M6544 4085 c-4 -9 -7 -50 -8 -93 -1 -83 1 -81 -77 -96 -24 -5 -26 -9
-25 -64 l1 -59 29 8 c80 23 141 94 181 213 17 51 18 56 2 80 -14 21 -25 26
-58 26 -26 0 -42 -5 -45 -15z"/>
<path d="M6298 3825 c-5 -5 -1 -27 21 -118 l6 -27 35 18 c19 11 41 30 49 44
14 24 13 27 -20 56 -30 28 -76 41 -91 27z"/>
<path d="M4475 2733 c-77 -15 -83 -21 -90 -81 -4 -31 -13 -90 -20 -131 l-13
-73 48 6 c126 17 194 57 206 122 7 40 -3 104 -16 104 -6 0 -26 -23 -46 -50
-23 -32 -43 -50 -53 -48 -23 5 -26 64 -5 110 19 42 18 46 -11 41z"/>
</g>
</svg>
